# xmcd
#
# Track frame offsets: 
#        150
#        10067
#        20100
#        31647
#        42474
#        54191
#        62517
#        73441
#        82720
#        91739
#        103459
#        115942
#        125426
#        134728
#        146657
#        156507
#        165950
#        176141
#        187020
#        194777
#
# Disc length: 2732 seconds
#
# Revision: 0
# Processed by: cddbd v1.5.2PL0 Copyright (c) Steve Scherf et al.
# Submitted via: ExactAudioCopy v0.99pb5
#
DISCID=200aaa14
DTITLE=Johnny Cash - The SUN Records Collection - CD 2
DYEAR=2010
DGENRE=Country
TTITLE0=Rock island line
TTITLE1=Hey Porter
TTITLE2=Big river
TTITLE3=Train of love
TTITLE4=Wide open road
TTITLE5=Wreck of the old 97
TTITLE6=(I heard that) Lonesome whistle
TTITLE7=Blue Train
TTITLE8=Life goes on
TTITLE9=Port of lonely hearts
TTITLE10=Give my love to Rose
TTITLE11=New Mexico
TTITLE12=I couldn't keep from crying
TTITLE13=Doin' my time
TTITLE14=Story of a broken heart
TTITLE15=Down the street to 301
TTITLE16=I could never be ashamed of you
TTITLE17=Belshazzar
TTITLE18=The good Lord's willing
TTITLE19=I was therwe when it happened
EXTD=
EXTT0=
EXTT1=
EXTT2=
EXTT3=
EXTT4=
EXTT5=
EXTT6=
EXTT7=
EXTT8=
EXTT9=
EXTT10=
EXTT11=
EXTT12=
EXTT13=
EXTT14=
EXTT15=
EXTT16=
EXTT17=
EXTT18=
EXTT19=
PLAYORDER=
